<?xml version="1.0" encoding="UTF-8"?>
<svg width="480" height="480" version="1.1" xmlns="http://www.w3.org/2000/svg" xmlns:xlink="http://www.w3.org/1999/xlink">
 <defs>
  <radialGradient id="c" cx="240" cy="240" r="225" gradientUnits="userSpaceOnUse">
   <stop stop-color="#00f" stop-opacity="0" offset="0"/>
   <stop stop-color="#000034" stop-opacity=".74227" offset="1"/>
  </radialGradient>
  <linearGradient id="a">
   <stop stop-color="#fff" stop-opacity=".68041" offset="0"/>
   <stop stop-color="#fff" stop-opacity="0" offset="1"/>
  </linearGradient>
  <radialGradient id="d" cx="240" cy="240" r="240" gradientUnits="userSpaceOnUse" xlink:href="#a"/>
  <radialGradient id="b" cx="196.07" cy="167.5" r="240" gradientTransform="matrix(-.5679 -1.4348 1.4011 -.55456 -81.88 420.14)" gradientUnits="userSpaceOnUse" xlink:href="#a"/>
  <linearGradient id="e" x1="38.881" x2="441.12" y1="152.75" y2="152.75" gradientUnits="userSpaceOnUse">
   <stop stop-color="#5e99dd" offset="0"/>
   <stop stop-color="#0461c9" offset="1"/>
  </linearGradient>
  <linearGradient id="f" x1="27.401" x2="452.6" y1="311.83" y2="311.83" gradientUnits="userSpaceOnUse">
   <stop stop-color="#0048cd" offset="0"/>
   <stop stop-color="#002aa0" offset="1"/>
  </linearGradient>
 </defs>
 <path d="m240 0c-132.34 0-240 107.66-240 240s107.66 240 240 240 240-107.66 240-240-107.66-240-240-240z" fill="#00007b"/>
 <path d="m465 240c0 124.07-100.93 225-225 225s-225-100.93-225-225 100.93-225 225-225 225 100.93 225 225z" fill="#649efa"/>
 <path d="m240 278.09c78.168 0 145.31-44.435 201.12-107.03-28.698-83.493-108.01-143.66-201.12-143.66-93.108 0-172.42 60.168-201.12 143.66 55.809 62.593 122.95 107.03 201.12 107.03z" fill="url(#e)"/>
 <path d="m240 278.09c-78.168 0-145.31-44.435-201.12-107.03-7.4341 21.628-11.479 44.818-11.479 68.938 0 117.23 95.372 212.6 212.6 212.6 117.23 0 212.6-95.371 212.6-212.6 0-24.119-4.0449-47.309-11.479-68.938-55.809 62.593-122.95 107.03-201.12 107.03z" fill="url(#f)"/>
 <path d="m240 0c-132.34 0-240 107.66-240 240s107.66 240 240 240 240-107.66 240-240-107.66-240-240-240z" fill="url(#d)"/>
 <path d="m465 240c0 124.07-100.93 225-225 225s-225-100.93-225-225 100.93-225 225-225 225 100.93 225 225z" fill="url(#b)"/>
 <path d="m465 240c0 124.07-100.93 225-225 225s-225-100.93-225-225 100.93-225 225-225 225 100.93 225 225z" fill="url(#c)"/>
 <path d="m203.23 253.14c0-30.392-0.99707-30.89-28.898-34.378v-16.94h107.12v157.94c0 28.398 2.4912 30.891 28.898 33.88v19.431h-136.02v-19.431c26.407-2.9893 28.898-5.4814 28.898-33.88zm81.211-136.52c0 23.915-18.932 43.347-43.346 43.347-23.417 0-43.346-19.432-43.346-43.347 0-24.413 19.929-43.346 43.346-43.346 24.414 0 43.346 18.933 43.346 43.346z" fill="#fff" stroke="#001c9f" stroke-width="5"/>
</svg>
